<svg id="Layer_1" data-name="Layer 1" xmlns="http://www.w3.org/2000/svg" viewBox="0 0 28.05 26.68"><defs><style>.cls-1{fill:#212c3e;}</style></defs><rect class="cls-1" x="8.17" y="7.79" width="11.88" height="6.41" rx="0.67" transform="translate(0.17 23.9) rotate(-90)"/><path class="cls-1" d="M31,3c0,1-.5,1.82-1.12,1.82H4.12C3.51,4.84,3,4,3,3s.51-1.81,1.12-1.81H29.88C30.5,1.21,31,2,31,3Z" transform="translate(-2.95 -1.21)"/><path class="cls-1" d="M30.94,26.07c0,1-.5,1.81-1.12,1.81H4.07c-.62,0-1.12-.81-1.12-1.81s.5-1.82,1.12-1.82H29.82C30.44,24.25,30.94,25.06,30.94,26.07Z" transform="translate(-2.95 -1.21)"/><rect class="cls-1" x="14.86" y="7.76" width="11.93" height="6.41" rx="0.67" transform="translate(6.91 30.58) rotate(-90)"/></svg>