<svg id="Layer_1" data-name="Layer 1" xmlns="http://www.w3.org/2000/svg" viewBox="0 0 23.41 23.97"><defs><style>.cls-1{fill:#212c3e;}</style></defs><rect class="cls-1" x="14.65" y="16.12" width="10.77" height="10.77" rx="0.98" transform="translate(39.53 -1.44) rotate(90)"/><rect class="cls-1" x="2.41" y="16.12" width="10.77" height="10.77" rx="0.98" transform="translate(27.29 10.79) rotate(90)"/><path class="cls-1" d="M11.62,14.13V10.39H23.16a1.75,1.75,0,0,0,1.93-1.5A1.75,1.75,0,0,0,23.16,7.4H11.62V3.66a.88.88,0,0,0-1-.75A1.12,1.12,0,0,0,10,3.1L2.33,8.33a.65.65,0,0,0,0,1.13L10,14.69a1.2,1.2,0,0,0,.64.18A.87.87,0,0,0,11.62,14.13Z" transform="translate(-2 -2.91)"/></svg>