<svg id="Layer_1" data-name="Layer 1" xmlns="http://www.w3.org/2000/svg" viewBox="0 0 24.43 23"><defs><style>.cls-1{fill:#212c3e;}</style></defs><rect class="cls-1" width="10.77" height="10.77" rx="0.98"/><rect class="cls-1" y="12.23" width="10.77" height="10.77" rx="0.98"/><path class="cls-1" d="M25.21,15.74H21.48V4.64A1.7,1.7,0,0,0,20,2.79a1.7,1.7,0,0,0-1.49,1.85v11.1H14.75a.85.85,0,0,0-.75.93,1.1,1.1,0,0,0,.18.61l5.24,7.4A.69.69,0,0,0,20,25a.66.66,0,0,0,.56-.32l5.24-7.4a1.1,1.1,0,0,0,.18-.61A.85.85,0,0,0,25.21,15.74Z" transform="translate(-1.53 -2)"/></svg>