<svg id="Layer_1" data-name="Layer 1" xmlns="http://www.w3.org/2000/svg" viewBox="0 0 23.41 23.97"><defs><style>.cls-1{fill:#212c3e;}</style></defs><rect class="cls-1" x="14.65" y="16.12" width="10.77" height="10.77" rx="0.98" transform="translate(39.53 -1.44) rotate(90)"/><rect class="cls-1" x="2.41" y="16.12" width="10.77" height="10.77" rx="0.98" transform="translate(27.29 10.79) rotate(90)"/><path class="cls-1" d="M15.47,3.66V7.4H3.92A1.75,1.75,0,0,0,2,8.89a1.75,1.75,0,0,0,1.92,1.5H15.47v3.74a.87.87,0,0,0,1,.74,1.17,1.17,0,0,0,.63-.18l7.7-5.23a.65.65,0,0,0,0-1.13L17.06,3.1a1.09,1.09,0,0,0-.63-.19A.88.88,0,0,0,15.47,3.66Z" transform="translate(-2 -2.91)"/></svg>