<svg id="Layer_1" data-name="Layer 1" xmlns="http://www.w3.org/2000/svg" viewBox="0 0 24.43 23"><defs><style>.cls-1{fill:#212c3e;}</style></defs><rect class="cls-1" width="10.77" height="10.77" rx="0.98"/><rect class="cls-1" y="12.23" width="10.77" height="10.77" rx="0.98"/><path class="cls-1" d="M14.75,12h3.74V23.15A1.7,1.7,0,0,0,20,25a1.7,1.7,0,0,0,1.5-1.85V12h3.73a.84.84,0,0,0,.75-.92,1.07,1.07,0,0,0-.18-.61L20.54,3.1A.68.68,0,0,0,20,2.79a.7.7,0,0,0-.56.31l-5.24,7.41a1.07,1.07,0,0,0-.18.61A.84.84,0,0,0,14.75,12Z" transform="translate(-1.53 -2)"/></svg>