<svg id="Layer_1" data-name="Layer 1" xmlns="http://www.w3.org/2000/svg" viewBox="0 0 28.08 27.43"><defs><style>.cls-1{fill:#212c3e;}</style></defs><rect class="cls-1" x="7.86" y="10.86" width="20" height="6.27" rx="0.86" transform="translate(0.75 31.24) rotate(-90)"/><path class="cls-1" d="M4.9.63c1,0,1.77.49,1.77,1.09V26.91c0,.6-.79,1.09-1.77,1.09s-1.78-.49-1.78-1.09V1.72C3.12,1.12,3.91.63,4.9.63Z" transform="translate(-3.12 -0.63)"/><path class="cls-1" d="M29.43.68c1,0,1.77.49,1.77,1.1V27c0,.61-.79,1.1-1.77,1.1s-1.78-.49-1.78-1.1V1.78C27.65,1.17,28.45.68,29.43.68Z" transform="translate(-3.12 -0.63)"/><rect class="cls-1" x="14.38" y="10.82" width="20.1" height="6.27" rx="0.86" transform="translate(7.36 37.75) rotate(-90)"/></svg>