<?xml version="1.0" standalone="no"?>
<!DOCTYPE svg PUBLIC "-//W3C//DTD SVG 20010904//EN"
 "http://www.w3.org/TR/2001/REC-SVG-20010904/DTD/svg10.dtd">
<svg version="1.0" xmlns="http://www.w3.org/2000/svg"
 width="371.000000pt" height="371.000000pt" viewBox="0 0 371.000000 371.000000"
 preserveAspectRatio="xMidYMid meet">
<metadata>
Created by potrace 1.14, written by Peter Selinger 2001-2017
</metadata>
<g transform="translate(0.000000,371.000000) scale(0.100000,-0.100000)"
fill="#000000" stroke="none">
<path d="M1308 3322 l-187 -2 26 -48 c30 -54 54 -97 84 -149 12 -21 32 -57 45
-80 53 -95 74 -132 131 -233 l60 -105 427 0 427 0 28 -50 c15 -27 47 -86 71
-130 23 -44 50 -93 60 -110 18 -31 54 -98 130 -240 24 -44 46 -84 50 -90 4 -5
31 -55 60 -110 30 -55 71 -131 92 -168 21 -38 38 -70 38 -72 0 -2 15 -30 33
-62 35 -60 86 -154 165 -303 25 -47 53 -96 62 -110 10 -14 25 -41 33 -60 9
-19 34 -68 56 -107 22 -40 37 -73 33 -74 -12 -2 -720 -8 -1473 -13 l-726 -5
-16 32 c-24 48 -105 194 -143 260 -19 32 -34 60 -34 61 0 2 -20 39 -45 82 -25
44 -45 81 -45 85 0 3 35 5 78 6 500 5 1514 20 1520 22 1 1 -24 52 -56 114 -33
61 -92 175 -132 252 -41 77 -88 167 -106 200 l-32 60 -78 -2 c-44 -1 -235 -4
-425 -8 l-345 -6 -39 73 c-21 40 -60 113 -87 162 -27 49 -67 121 -87 160 -21
39 -47 87 -58 106 l-20 35 -264 -2 c-145 -1 -317 -2 -382 -2 l-119 -1 20 -32
c10 -18 43 -78 72 -133 98 -186 143 -270 160 -300 10 -16 39 -70 65 -120 26
-49 60 -112 75 -140 15 -27 49 -90 75 -140 26 -49 72 -134 102 -189 30 -54 51
-101 48 -104 -6 -6 -197 -9 -603 -11 l-133 -1 29 -52 c16 -29 45 -82 63 -117
19 -34 50 -93 69 -130 20 -36 67 -124 104 -196 38 -71 72 -134 76 -140 4 -5
29 -50 55 -100 26 -49 67 -126 90 -170 24 -44 62 -114 84 -155 l40 -75 708 3
c389 1 911 4 1160 5 l452 3 20 25 c11 13 20 28 21 32 0 4 5 13 10 20 6 7 116
172 245 367 128 195 237 360 242 365 4 6 59 88 121 183 l114 173 -95 172 c-52
95 -112 204 -132 242 -21 39 -41 75 -45 80 -4 6 -29 51 -55 100 -43 81 -78
145 -125 230 -9 17 -38 71 -65 120 -27 50 -85 158 -131 240 -45 83 -102 186
-126 231 -23 44 -77 142 -118 217 l-75 137 -620 -2 c-341 -2 -704 -4 -807 -6z"/>
</g>
</svg>
